ply 
format ascii 1.0 
comment lines 
element vertex 9
property float x 
property float y 
property float z 
end_header
-0.6805267333984387 4.3509445190429705 -1.5487451553344718
58.40718460083008 -82.1609878540039 -12.327695846557617
-91.07869720458984 -46.65836715698242 -7.340392589569092
96.68419647216797 15.651445388793945 2.685823678970337
-78.1120834350586 60.13513946533203 -6.088622570037842
3.14817214012146 90.49650573730469 -11.837042808532715
-19.831655502319336 -80.0899887084961 -2.5694868564605713
50.045955657958984 51.196590423583984 -14.792501449584961
23.4598331451416 -49.36347579956055 19.859182357788086
